<svg width="48" height="55" viewBox="0 0 48 55" fill="none" xmlns="http://www.w3.org/2000/svg">
<path d="M48 16.116C48 5.27143 40.1503 0 24 0C7.84972 0 0 5.27143 0 16.116C0 28.5874 22.5823 42.9754 23.5423 43.5806L23.5509 43.5823C23.5697 43.5943 23.5903 43.5943 23.6109 43.6046C23.7343 43.6697 23.8646 43.7143 24 43.7143C24.1354 43.7143 24.2657 43.6697 24.3891 43.6063C24.408 43.596 24.4303 43.596 24.4491 43.584L24.4577 43.5823C25.4177 42.9754 48 28.5891 48 16.116ZM30.8571 16.116C30.8571 25.6474 25.9269 36.8949 24 40.9269C22.0731 36.8966 17.1429 25.6543 17.1429 16.116C17.1429 3.20743 21.0566 1.71429 24 1.71429C26.9434 1.71429 30.8571 3.20743 30.8571 16.116ZM15.4286 16.116C15.4286 24.3394 18.8211 33.5006 21.1389 38.8063C16.4383 33.84 8.57143 24.3103 8.57143 16.116C8.57143 8.076 11.8594 3.55543 18.8177 2.17543C16.548 4.65771 15.4286 9.276 15.4286 16.116ZM32.5714 16.116C32.5714 9.276 31.4537 4.65771 29.1823 2.17543C36.1406 3.55543 39.4286 8.07771 39.4286 16.116C39.4286 24.3103 31.5617 33.8383 26.8611 38.8063C29.1789 33.5023 32.5714 24.3394 32.5714 16.116ZM1.71429 16.116C1.71429 9.30857 5.12057 5.02457 12.2674 3.03257C8.64343 5.65886 6.85714 9.99943 6.85714 16.116C6.85714 23.3211 12.2314 31.188 16.8651 36.6411C10.2514 31.3817 1.71429 23.2183 1.71429 16.116ZM31.1349 36.6411C35.7686 31.188 41.1429 23.3229 41.1429 16.116C41.1429 9.99943 39.3566 5.65714 35.7326 3.03257C42.8794 5.02457 46.2857 9.30857 46.2857 16.116C46.2857 23.2183 37.7486 31.3817 31.1349 36.6411Z" fill="#E10A03"/>
<path d="M19.7143 46.2856C19.487 46.2856 19.2689 46.3759 19.1082 46.5367C18.9474 46.6974 18.8571 46.9155 18.8571 47.1428V52.2856C18.8571 53.7274 19.9869 54.8571 21.4286 54.8571H26.5714C28.0131 54.8571 29.1429 53.7274 29.1429 52.2856V47.1428C29.1429 46.9155 29.0526 46.6974 28.8918 46.5367C28.7311 46.3759 28.513 46.2856 28.2857 46.2856H19.7143ZM27.4286 52.2856C27.4286 52.7896 27.0754 53.1428 26.5714 53.1428H21.4286C21.3146 53.1479 21.2009 53.1292 21.0946 53.088C20.9883 53.0467 20.8917 52.9837 20.8111 52.9031C20.7305 52.8225 20.6675 52.7259 20.6263 52.6196C20.585 52.5133 20.5663 52.3996 20.5714 52.2856V47.9999H27.4286V52.2856Z" fill="#E10A03"/>
</svg>
