<svg width="50" height="40" viewBox="0 0 50 40" fill="none" xmlns="http://www.w3.org/2000/svg">
<path d="M48.8638 0.616699C48.7842 0.616699 48.7053 0.632416 48.6318 0.66295C48.5583 0.693483 48.4916 0.738232 48.4354 0.794628C48.3792 0.851024 48.3347 0.917957 48.3045 0.991586C48.2743 1.06521 48.2589 1.14409 48.2592 1.22369V38.8569C48.2592 39.0176 48.323 39.1716 48.4366 39.2852C48.5502 39.3988 48.7043 39.4627 48.865 39.4627C49.0256 39.4627 49.1797 39.3988 49.2933 39.2852C49.4069 39.1716 49.4707 39.0176 49.4707 38.8569V1.22369C49.4707 1.0627 49.4068 0.908314 49.293 0.794482C49.1791 0.680649 49.0247 0.616699 48.8638 0.616699V0.616699Z" fill="#E10A03"/>
<path d="M46.7017 2.07816C46.5996 2.02876 46.4857 2.00884 46.3729 2.02064C46.2601 2.03243 46.1528 2.07548 46.0631 2.14493L45.3772 2.68515C41.762 5.54406 35.7152 10.3283 23.3727 10.3283H6.5361C4.77462 10.3283 3.34213 11.7851 3.34213 13.5745V26.581C3.34213 28.3291 4.77462 29.7519 6.5361 29.7519H10.6563C10.7632 31.1176 11.2657 34.3577 13.6354 36.7456C15.4248 38.5496 17.8843 39.4637 20.9448 39.4637C21.1057 39.4637 21.2601 39.3998 21.374 39.2859C21.4878 39.1721 21.5518 39.0177 21.5518 38.8567C21.5518 38.6958 21.4878 38.5414 21.374 38.4275C21.2601 38.3137 21.1057 38.2497 20.9448 38.2497C18.223 38.2497 16.0573 37.4582 14.5034 35.8971C12.4797 33.8624 11.9941 31.012 11.8776 29.7519H15.5134C15.6166 30.5799 15.9505 32.0354 17.06 33.1535C18.0179 34.1186 19.3253 34.6078 20.9448 34.6078C21.1057 34.6078 21.2601 34.5439 21.374 34.43C21.4878 34.3162 21.5518 34.1618 21.5518 34.0008C21.5518 33.8399 21.4878 33.6855 21.374 33.5716C21.2601 33.4578 21.1057 33.3938 20.9448 33.3938C19.664 33.3938 18.6491 33.0272 17.9292 32.3061C17.1317 31.5061 16.844 30.4293 16.7383 29.7519H23.2889C35.6909 29.7519 41.7863 34.5629 45.4282 37.4376L46.0619 37.9365C46.1513 38.0066 46.2587 38.0499 46.3717 38.0615C46.4847 38.0731 46.5987 38.0525 46.7004 38.0021C46.8026 37.9523 46.8888 37.8748 46.9491 37.7784C47.0094 37.6821 47.0415 37.5707 47.0416 37.457V2.62324C47.042 2.50959 47.0103 2.39813 46.9502 2.3017C46.89 2.20527 46.8039 2.12778 46.7017 2.07816ZM4.55611 26.581V13.5745C4.55611 12.454 5.44352 11.5423 6.5361 11.5423H10.626V28.538H6.5361C5.42531 28.538 4.55611 27.6785 4.55611 26.581ZM45.8312 36.2066C42.0266 33.213 35.7213 28.538 23.2902 28.538H16.2528C16.195 28.5166 16.1345 28.5039 16.0731 28.5003H16.0707C16.0067 28.5029 15.9436 28.5156 15.8837 28.538H11.84V11.5423H23.3727C35.8002 11.5423 42.0606 6.85151 45.8312 3.87485V36.2066Z" fill="#E10A03"/>
<path d="M1.52117 27.1507C1.68215 27.1507 1.83654 27.0867 1.95038 26.9729C2.06421 26.8591 2.12816 26.7047 2.12816 26.5437V13.5372C2.12816 13.3762 2.06421 13.2218 1.95038 13.108C1.83654 12.9941 1.68215 12.9302 1.52117 12.9302C1.36019 12.9302 1.2058 12.9941 1.09197 13.108C0.978135 13.2218 0.914185 13.3762 0.914185 13.5372L0.914185 26.5437C0.914185 26.7047 0.978135 26.8591 1.09197 26.9729C1.2058 27.0867 1.36019 27.1507 1.52117 27.1507Z" fill="#E10A03"/>
</svg>
