<svg width="42" height="42" viewBox="0 0 42 42" fill="none" xmlns="http://www.w3.org/2000/svg">
<path d="M1.05347 41.8132C1.13317 41.8132 1.21243 41.8015 1.28879 41.7787L17.7447 36.8764C17.8771 36.8371 17.9976 36.7652 18.0952 36.6674L34.6992 19.8742C34.7371 19.8347 34.7568 19.787 34.7848 19.7425L40.8044 13.723C41.2842 13.2417 41.5537 12.5899 41.5537 11.9103C41.5537 11.2308 41.2842 10.5789 40.8044 10.0977L32.1881 1.48469C31.7073 1.00455 31.0557 0.734863 30.3763 0.734863C29.6968 0.734863 29.0452 1.00455 28.5645 1.48469L22.4116 7.63756C22.3721 7.67705 22.3524 7.72642 22.3227 7.77085L5.67264 24.4226C5.58057 24.5142 5.51174 24.6265 5.47188 24.7501L0.271811 40.737C0.231871 40.8604 0.221656 40.9914 0.242 41.1195C0.262344 41.2476 0.31267 41.369 0.388875 41.4739C0.465079 41.5789 0.565004 41.6643 0.680499 41.7232C0.795995 41.7822 0.923792 41.813 1.05347 41.8132ZM23.0369 9.38188L24.7483 11.0933L10.723 25.1845L7.88103 24.5394L23.0369 9.38188ZM11.7498 26.4862L25.9134 12.2584L29.9188 16.2638L15.5281 30.3286H11.7498V26.4862ZM32.9533 19.2982L17.7381 34.6878L16.7903 31.3983L31.0806 17.4288L32.9533 19.2982ZM6.80152 25.9826L10.1042 26.733V31.1514C10.1042 31.3696 10.1909 31.5789 10.3452 31.7332C10.4995 31.8875 10.7088 31.9742 10.927 31.9742H15.2451L16.2867 35.5945L2.32057 39.7546L6.80152 25.9826ZM29.7279 2.64812C29.9005 2.47728 30.1335 2.38145 30.3763 2.38145C30.6191 2.38145 30.8521 2.47728 31.0246 2.64812L39.6393 11.2628C39.8114 11.435 39.9081 11.6685 39.9081 11.912C39.9081 12.1555 39.8114 12.389 39.6393 12.5612L34.0904 18.1101L24.179 8.1987L29.7279 2.64812Z" fill="#E10A03"/>
</svg>
